<svg xmlns="http://www.w3.org/2000/svg" xmlns:xlink="http://www.w3.org/1999/xlink" viewBox="0 0 3710 3710"><defs><style>.cls-1{fill:none;}.cls-2{isolation:isolate;}.cls-13,.cls-27,.cls-3,.cls-6{fill:#fff;}.cls-4{fill:url(#linear-gradient);}.cls-5{fill:#91b3fa;}.cls-6{opacity:0.5;}.cls-7{fill:#bdd0fb;}.cls-8{fill:#7d97f4;}.cls-9{fill:url(#linear-gradient-2);}.cls-10{fill:url(#linear-gradient-3);}.cls-11{fill:url(#linear-gradient-4);}.cls-12{clip-path:url(#clip-path);}.cls-13{mix-blend-mode:overlay;opacity:0.21;}.cls-14{fill:url(#linear-gradient-5);}.cls-15{fill:url(#linear-gradient-6);}.cls-16{fill:url(#linear-gradient-7);}.cls-17{fill:url(#linear-gradient-8);}.cls-18{fill:url(#linear-gradient-9);}.cls-19{fill:url(#linear-gradient-10);}.cls-20{fill:url(#linear-gradient-11);}.cls-21{fill:url(#linear-gradient-12);}.cls-22{fill:url(#linear-gradient-13);}.cls-23{fill:url(#linear-gradient-14);}.cls-24{fill:url(#linear-gradient-15);}.cls-25{fill:url(#linear-gradient-16);}.cls-26{fill:url(#linear-gradient-17);}.cls-27{opacity:0.7;}.cls-28{fill:url(#linear-gradient-18);}.cls-29{fill:url(#linear-gradient-19);}.cls-30{fill:url(#linear-gradient-20);}.cls-31{fill:url(#linear-gradient-21);}.cls-32{fill:url(#linear-gradient-22);}.cls-33{fill:url(#linear-gradient-23);}.cls-34{fill:url(#linear-gradient-24);}.cls-35{fill:url(#linear-gradient-25);}.cls-36{fill:url(#linear-gradient-26);}.cls-37{fill:url(#linear-gradient-27);}.cls-38{fill:url(#linear-gradient-28);}.cls-39{fill:url(#linear-gradient-29);}.cls-40{fill:url(#linear-gradient-30);}.cls-41{fill:url(#linear-gradient-31);}.cls-42{fill:url(#linear-gradient-32);}.cls-43{fill:url(#linear-gradient-33);}.cls-44{fill:url(#linear-gradient-34);}.cls-45{fill:url(#linear-gradient-35);}.cls-46{fill:url(#linear-gradient-36);}.cls-47{fill:url(#linear-gradient-37);}.cls-48{opacity:0.34;fill:url(#linear-gradient-38);}</style><linearGradient id="linear-gradient" x1="3595.24" y1="4052.89" x2="1122.28" y2="981.64" gradientUnits="userSpaceOnUse"><stop offset="0" stop-color="#dae3fe"/><stop offset="1" stop-color="#e9effd"/></linearGradient><linearGradient id="linear-gradient-2" x1="1185.01" y1="69.79" x2="2905.09" y2="4236.67" gradientUnits="userSpaceOnUse"><stop offset="0" stop-color="#09005d"/><stop offset="1" stop-color="#1a0f91"/></linearGradient><linearGradient id="linear-gradient-3" x1="791.98" y1="784.19" x2="2583.47" y2="2445.21" gradientUnits="userSpaceOnUse"><stop offset="0" stop-color="#4f52ff"/><stop offset="1" stop-color="#4042e2"/></linearGradient><linearGradient id="linear-gradient-4" x1="1611.22" y1="-98.59" x2="3336.87" y2="4081.77" xlink:href="#linear-gradient-2"/><clipPath id="clip-path"><rect class="cls-1" x="1235.26" y="662.39" width="1339.65" height="2322.51" rx="29.25"/></clipPath><linearGradient id="linear-gradient-5" x1="1306.48" y1="1108.94" x2="1403.38" y2="1486.52" xlink:href="#linear-gradient-3"/><linearGradient id="linear-gradient-6" x1="1786.18" y1="1412.65" x2="1806.36" y2="980.32" gradientTransform="matrix(0.74, -0.67, 0.67, 0.74, -879.95, 1400.9)" xlink:href="#linear-gradient-3"/><linearGradient id="linear-gradient-7" x1="2906.51" y1="-4482.43" x2="2886.46" y2="-4380.52" gradientTransform="matrix(0.74, -0.67, 0.67, 0.74, -879.95, 1400.9)" xlink:href="#linear-gradient-3"/><linearGradient id="linear-gradient-8" x1="2965.18" y1="-4470.88" x2="2945.13" y2="-4368.97" gradientTransform="matrix(0.74, -0.67, 0.67, 0.74, -879.95, 1400.9)" xlink:href="#linear-gradient-3"/><linearGradient id="linear-gradient-9" x1="1093.2" y1="1150.51" x2="1180.08" y2="1433.41" xlink:href="#linear-gradient-2"/><linearGradient id="linear-gradient-10" x1="1317.16" y1="960.31" x2="1312.71" y2="1089.51" xlink:href="#linear-gradient-2"/><linearGradient id="linear-gradient-11" x1="7015.15" y1="-758.03" x2="6948.32" y2="-626.6" gradientTransform="matrix(-0.68, -0.73, -0.73, 0.68, 7241.38, 1811.61)" xlink:href="#linear-gradient-2"/><linearGradient id="linear-gradient-12" x1="6637.6" y1="-201.65" x2="6570.77" y2="-70.23" gradientTransform="matrix(-0.68, -0.73, -0.91, 0.85, 7425.94, 1639.61)" xlink:href="#linear-gradient-2"/><linearGradient id="linear-gradient-13" x1="2652.64" y1="485.15" x2="1162.4" y2="2937.7" gradientUnits="userSpaceOnUse"><stop offset="0" stop-color="#ff928e"/><stop offset="1" stop-color="#fe7062"/></linearGradient><linearGradient id="linear-gradient-14" x1="2441.26" y1="356.71" x2="951.02" y2="2809.26" xlink:href="#linear-gradient-13"/><linearGradient id="linear-gradient-15" x1="1681.01" y1="2335.94" x2="1166.44" y2="3251.47" xlink:href="#linear-gradient-13"/><linearGradient id="linear-gradient-16" x1="1938.7" y1="2480.77" x2="1424.13" y2="3396.3" xlink:href="#linear-gradient-13"/><linearGradient id="linear-gradient-17" x1="1936.1" y1="1395.51" x2="2163.31" y2="2143.98" xlink:href="#linear-gradient-13"/><linearGradient id="linear-gradient-18" x1="1471.31" y1="2038.04" x2="1558.18" y2="2385.55" xlink:href="#linear-gradient-13"/><linearGradient id="linear-gradient-19" x1="8102.54" y1="2340.7" x2="8264.49" y2="2340.7" gradientTransform="matrix(-1, 0, 0, 1, 11269.01, 0)" gradientUnits="userSpaceOnUse"><stop offset="0" stop-color="#febbba"/><stop offset="1" stop-color="#ff928e"/></linearGradient><linearGradient id="linear-gradient-20" x1="5332.05" y1="5222.83" x2="5604.37" y2="4840.24" gradientTransform="matrix(-1, 0, 0, 1, 10501.25, 0)" xlink:href="#linear-gradient-13"/><linearGradient id="linear-gradient-21" x1="2986.79" y1="1693.51" x2="2935" y2="1887.31" gradientTransform="matrix(1, 0, 0, 1, 0, 0)" xlink:href="#linear-gradient-19"/><linearGradient id="linear-gradient-22" x1="6452.6" y1="4834.99" x2="4962.36" y2="7287.54" gradientTransform="matrix(-1, 0, 0, 1, 11269.01, 0)" gradientUnits="userSpaceOnUse"><stop offset="0" stop-color="#e1473d"/><stop offset="1" stop-color="#e9605a"/></linearGradient><linearGradient id="linear-gradient-23" x1="5454.9" y1="5310.26" x2="5727.22" y2="4927.67" gradientTransform="matrix(-1, 0, 0, 1, 10501.25, 0)" xlink:href="#linear-gradient-13"/><linearGradient id="linear-gradient-24" x1="8030.26" y1="2004.07" x2="8136.55" y2="2004.07" gradientTransform="matrix(-1, 0, 0, 1, 10501.25, 0)" xlink:href="#linear-gradient-19"/><linearGradient id="linear-gradient-25" x1="2353.13" y1="5536.13" x2="2304.08" y2="5374.36" gradientTransform="matrix(-0.75, -0.67, -0.67, 0.75, 8313.19, -803.17)" xlink:href="#linear-gradient-19"/><linearGradient id="linear-gradient-26" x1="2304.36" y1="5255.06" x2="2345.39" y2="5489.07" gradientTransform="matrix(-0.75, -0.67, -0.67, 0.75, 8313.19, -803.17)" xlink:href="#linear-gradient-2"/><linearGradient id="linear-gradient-27" x1="2302.99" y1="5535.38" x2="2258.86" y2="5389.83" gradientTransform="matrix(-0.75, -0.67, -0.67, 0.75, 8313.19, -803.17)" xlink:href="#linear-gradient-19"/><linearGradient id="linear-gradient-28" x1="2362.96" y1="1982.5" x2="2435.62" y2="1982.5" gradientTransform="matrix(1, 0, 0, 1, 0, 0)" xlink:href="#linear-gradient-19"/><linearGradient id="linear-gradient-29" x1="8255.36" y1="3173.88" x2="8376.79" y2="3173.88" gradientTransform="matrix(-1, 0, 0, 1, 11269.01, 0)" xlink:href="#linear-gradient-2"/><linearGradient id="linear-gradient-30" x1="8450.29" y1="3177.11" x2="8625.09" y2="3177.11" gradientTransform="matrix(-1, 0, 0, 1, 11269.01, 0)" xlink:href="#linear-gradient-2"/><linearGradient id="linear-gradient-31" x1="3066.58" y1="1849.43" x2="2839.37" y2="3266.16" xlink:href="#linear-gradient-2"/><linearGradient id="linear-gradient-32" x1="8347.63" y1="2440.68" x2="8285.43" y2="2551.39" gradientTransform="matrix(-1, 0, 0, 1, 11269.01, 0)" xlink:href="#linear-gradient-2"/><linearGradient id="linear-gradient-33" x1="3008.33" y1="1839.93" x2="2781.05" y2="3257.03" xlink:href="#linear-gradient-2"/><linearGradient id="linear-gradient-34" x1="2867.37" y1="1816.75" x2="2634.66" y2="3267.75" xlink:href="#linear-gradient-2"/><linearGradient id="linear-gradient-35" x1="3025.55" y1="1840.3" x2="2775.65" y2="3398.48" xlink:href="#linear-gradient-2"/><linearGradient id="linear-gradient-36" x1="2891.72" y1="1947.66" x2="2864.99" y2="2023.4" gradientTransform="translate(2298.37 -1407.63) rotate(45)" xlink:href="#linear-gradient-3"/><linearGradient id="linear-gradient-37" x1="3015.35" y1="1949.31" x2="2988.62" y2="2025.05" gradientTransform="translate(2335.75 -1494.56) rotate(45)" xlink:href="#linear-gradient-3"/><linearGradient id="linear-gradient-38" x1="3145.7" y1="653.45" x2="3057.22" y2="1235.97" gradientUnits="userSpaceOnUse"><stop offset="0" stop-color="#53d8ff"/><stop offset="1" stop-color="#3840f7"/></linearGradient></defs><g class="cls-2"><g id="Background"><rect class="cls-3" width="3710" height="3710"/></g><g id="Illustration"><path class="cls-4" d="M2916.83,2840.37c-56.9,59.73-110.75,98.24-153.29,128.68C2263.46,3326.76,1671.73,3222.49,1546,3197c-185.7-37.6-544.67-110.28-804.2-414.55-392.64-460.32-331.5-1185.55-26.94-1664.29,55.71-87.56,350-573.59,948.08-651.53,362-47.17,783.9,48,1089.45,303.17C3393.74,1305.53,3348.08,2387.75,2916.83,2840.37Z"/><path class="cls-5" d="M1816.75,2478.35S1387.9,1194.22,679.44,536.33c-47.62-44.22-125.29-18.54-136.76,45.43C465.93,1009.51,360.53,2295.53,1816.75,2478.35Z"/><path class="cls-6" d="M1678.43,2405.51a3.58,3.58,0,0,1-4.15,5.82C1532.9,2324.7,977,1886.55,701.05,938.54c-.89-3,3.57-4.64,4.71-1.68C790.21,1154.77,1127.38,1956,1678.43,2405.51Z"/><path class="cls-7" d="M1964.83,2854.27S1074.81,2127.24,567,1730c-40.8-31.92-98.59,21.7-89,72.61C542.1,2143,751.1,3153.61,1964.83,2854.27Z"/><path class="cls-6" d="M1778.15,2881.34c3.39,1.19,2,5.89-1.53,5.49-174.23-19.68-718.27-177.84-1128.39-840.6-1.33-2.15,1.42-4.44,3.08-2.53C773.62,2184.19,1243.32,2693.52,1778.15,2881.34Z"/><path class="cls-8" d="M2554.75,2825.16s-531.37-647.79-51.92-1242.57c299.62-371.69,376.38-620.47,391.8-754.8,5.06-44,57.5-60.83,85.44-27.56C3188.68,1048.64,3615.19,1783,2554.75,2825.16Z"/><path class="cls-6" d="M3022.9,1010.22a3.14,3.14,0,0,1,6.26-.46c20.09,151.56,32.93,804.62-456.21,1557-1.57,2.41-5.13.17-3.76-2.38C2669.9,2376.45,3025.3,1666.52,3022.9,1010.22Z"/><rect class="cls-9" x="1151.93" y="513.8" width="1508.15" height="2605.18" rx="29.25"/><rect class="cls-10" x="1220.89" y="594.77" width="1370.16" height="2444.56" rx="29.25"/><path class="cls-11" d="M1495.33,591.23h830.19a0,0,0,0,1,0,0v67.82a11.15,11.15,0,0,1-11.15,11.15H1506.49a11.15,11.15,0,0,1-11.15-11.15V591.23a0,0,0,0,1,0,0Z"/><rect class="cls-8" x="1667.03" y="601.85" width="506.1" height="28.87" rx="4.08"/><g class="cls-12"><polygon class="cls-13" points="2931.37 1341.75 1061.14 890.45 1099.28 741.21 2969.51 1192.51 2931.37 1341.75"/><polygon class="cls-13" points="2774.24 2741.04 904.01 2289.74 1022.3 1826.89 2892.53 2278.19 2774.24 2741.04"/><polygon class="cls-13" points="2876.28 2202.86 1006.05 1751.56 1036.77 1631.37 2907 2082.66 2876.28 2202.86"/><polygon class="cls-13" points="2883.33 1595.94 1013.1 1144.64 1030.98 1074.67 2901.21 1525.97 2883.33 1595.94"/></g><circle class="cls-8" cx="1177.4" cy="987.85" r="519.04"/><circle class="cls-3" cx="1180.15" cy="990.28" r="467.21"/><path class="cls-5" d="M985.62,700.06l-58.17-28.49a14.44,14.44,0,0,0-16,2.24l-6.32,5.69-10.22,9.21-6.55,5.89a14.44,14.44,0,0,0-3.89,15.7l22.26,60.82a28.49,28.49,0,0,0,20.67,18.3l39.31,8.6L1222,1081.5l14.71-13.25,10.22-9.2,13.89-12.51-255.3-283.48-4.15-40.26A28.56,28.56,0,0,0,985.62,700.06Z"/><path class="cls-8" d="M981.66,703.49l-52.72-26c-4.77-2.34-10.8-1.9-14.75,1.66l-5.7,5.12-9.2,8.3-5.9,5.3c-3.94,3.56-5,9.51-3.19,14.5l20.22,55a25.92,25.92,0,0,0,18.79,16.49l35.58,7.75L1195,1047.21l13.06-11.77,9.21-8.29,14.39-13L1001.45,758.56l-4.67-35.43C995.85,714.33,989.61,707.39,981.66,703.49Z"/><path class="cls-14" d="M1430.66,1142.36l-181.5-162-91.66,82.83,139.67,193a122.24,122.24,0,0,0,51.87,41.11l55.68,23.73c9.42,4,20.92,2.81,28.51-4l38.11-34.32c6.89-6.21,9.38-16.3,7.6-25.4l-9.37-46.73A123.68,123.68,0,0,0,1430.66,1142.36Z"/><path class="cls-15" d="M1258.21,969.94a15.12,15.12,0,0,1-1.12,21.36L1165.28,1074a15.12,15.12,0,0,1-21.36-1.12l-1.12-1.24a15.13,15.13,0,0,1,1.12-21.37l91.81-82.68a15.13,15.13,0,0,1,21.37,1.12Z"/><path class="cls-16" d="M1394.6,1260.15a12.92,12.92,0,0,1-1,18.26l-.19.17a12.92,12.92,0,0,1-18.26-.95l-173-192.12a12.93,12.93,0,0,1,.95-18.26l.2-.18a12.93,12.93,0,0,1,18.26,1Z"/><path class="cls-17" d="M1439.88,1219.36a12.94,12.94,0,0,1-1,18.27l-.19.17a12.92,12.92,0,0,1-18.26-1l-173-192.12a12.93,12.93,0,0,1,1-18.26l.19-.17a12.93,12.93,0,0,1,18.26,1Z"/><path class="cls-18" d="M862,1133l-12.25,11.41c-21,19.59-27.34,46.95-14.13,61.12l15.7,16.84c13.2,14.17,40.94,9.78,62-9.81l12.24-11.41c.81-.76,1.61-1.53,2.38-2.32l348.43-354-34.2-36.7L864.5,1130.78C863.66,1131.5,862.83,1132.24,862,1133Zm16.86,16.15c15.82-14.74,35.75-19.07,44.51-9.67s3,29-12.78,43.72-35.75,19.08-44.51,9.68S863.06,1163.9,878.88,1149.15Z"/><path class="cls-19" d="M1349,673.94l-71.06,66.23a22.32,22.32,0,0,0-7,18.4l3.33,35.29a22.27,22.27,0,0,0,18.54,19.9l35,5.8a22.28,22.28,0,0,0,18.84-5.69l71.06-66.22c10.71-10,28.43-2.81,28.83,11.83a128.23,128.23,0,0,1-41.24,97.17c-51.1,47.63-123.39,40.54-169.2-8.61s-47.79-121.75,3.31-169.38a128.21,128.21,0,0,1,99.82-34.31C1353.77,645.77,1359.69,664,1349,673.94Z"/><path class="cls-20" d="M1355.21,680.64l-71,66.23a22.27,22.27,0,0,0-7,18.39l3.33,35.3a22.29,22.29,0,0,0,18.55,19.9l35,5.8a22.28,22.28,0,0,0,18.84-5.69l71.06-66.23c10.72-10,28.43-2.81,28.83,11.84a128.22,128.22,0,0,1-41.24,97.17c-51.1,47.62-123.38,40.54-169.19-8.61s-47.8-121.76,3.3-169.38a128.17,128.17,0,0,1,99.82-34.31C1360,652.47,1365.93,670.65,1355.21,680.64Z"/><path class="cls-21" d="M867,1138.34l-12.25,11.41c-21,19.59-27.34,47-14.13,61.12l15.7,16.84c13.2,14.17,40.94,9.78,62-9.81l12.24-11.41c.81-.76,1.61-1.53,2.38-2.32l348.43-354.05-34.2-36.7-377.65,322.7C868.64,1136.84,867.81,1137.58,867,1138.34Zm16.86,16.16c15.82-14.75,35.75-19.08,44.51-9.68s3,29-12.78,43.72-35.75,19.08-44.51,9.68S868,1169.24,883.86,1154.5Z"/><path class="cls-22" d="M2010.47,1075.7c137.48,24.11,279.59,30.47,417,2.19a840.47,840.47,0,0,0,180.64-59.1c89.4-41,195-87.95,208.44-198.74,7.52-61.91-37-92.18-91.35-102.85-18.36-3.61-37-6-55.26-.67-17.15,5-14.18,11.65-12.89,28q2,25.46,4,50.91c2.31,29.69-42,43.78-63.21,56.1-50.2,29.14-103.29,53.19-158.73,70.51-132.52,41.41-273.52,42.92-410.42,27.13-45.18-5.21-81.13,37.26-68.71,81A64,64,0,0,0,2010.47,1075.7Z"/><path class="cls-23" d="M2122.4,1211.8,1839.62,1013a13.92,13.92,0,0,1,1.76-23.83L2138.57,840a16.13,16.13,0,0,1,23.36,15.24c-35.76,123.9-39.79,238.68-17.69,346A13.88,13.88,0,0,1,2122.4,1211.8Z"/><path class="cls-24" d="M1856.2,2827.26c-128.79,53.8-266,91.31-406.24,94a840.32,840.32,0,0,1-189.21-17.85c-96.24-20.28-209.57-42.83-247.1-147.93-21-58.73,15.73-98.06,66.44-120.45,23.77-10.5,49.87-19.7,75.28-14.28-7.94,23.69-16.28,70.51,2.53,90.18,13.41,14,57.38,21.2,76,27,55.39,17.37,112.47,29.13,170.37,33.81,138.39,11.2,276.26-18.4,406.31-63.95,42.93-15,87.35,18.46,84.87,63.87A64,64,0,0,1,1856.2,2827.26Z"/><path class="cls-25" d="M1768.14,2984.13l232-256.2a13.92,13.92,0,0,0-7-22.86L1670.44,2625a16.14,16.14,0,0,0-19.42,20c62.17,113,91.39,224,93.47,333.55A13.87,13.87,0,0,0,1768.14,2984.13Z"/><path class="cls-3" d="M2382.4,1437.19a3.1,3.1,0,0,1-2.32-1q-4.1-4.62-8.3-9.11a3.1,3.1,0,1,1,4.53-4.24q4.26,4.54,8.41,9.23a3.1,3.1,0,0,1-2.32,5.16Z"/><path class="cls-3" d="M2039.88,2198.75q-5.34,0-10.67-.12a3.11,3.11,0,0,1,.07-6.21h.07c8.33.2,16.74.16,25.11-.1a3.1,3.1,0,0,1,.19,6.19C2049.74,2198.67,2044.77,2198.75,2039.88,2198.75Zm55.61-3.41a3.11,3.11,0,0,1-.37-6.19c8.26-1,16.61-2.28,24.81-3.76a3.1,3.1,0,1,1,1.1,6.11c-8.31,1.49-16.77,2.78-25.16,3.81A2.34,2.34,0,0,1,2095.49,2195.34Zm65-12.9a3.1,3.1,0,0,1-.82-6.09c8-2.2,16.09-4.66,24-7.32a3.1,3.1,0,1,1,2,5.88c-8,2.7-16.23,5.19-24.34,7.42A3,3,0,0,1,2160.52,2182.44Zm62.5-22.13a3.1,3.1,0,0,1-1.24-5.94c7.66-3.35,15.3-6.94,22.72-10.67a3.1,3.1,0,1,1,2.79,5.54c-7.52,3.78-15.26,7.42-23,10.81A3.08,3.08,0,0,1,2223,2160.31Zm58.69-30.81a3.1,3.1,0,0,1-1.64-5.74c7.09-4.4,14.13-9.06,20.94-13.83a3.1,3.1,0,1,1,3.57,5.08c-6.91,4.84-14,9.56-21.23,14A3.2,3.2,0,0,1,2281.71,2129.5Zm53.61-39a3.06,3.06,0,0,1-2.37-1.1,3.09,3.09,0,0,1,.36-4.37c6.37-5.39,12.67-11,18.7-16.71a3.1,3.1,0,0,1,4.26,4.51c-6.11,5.78-12.49,11.48-18.95,16.94A3.11,3.11,0,0,1,2335.32,2090.52Zm47.34-46.32a3.11,3.11,0,0,1-2.33-5.16c5.52-6.25,10.93-12.73,16.08-19.26a3.1,3.1,0,1,1,4.87,3.85c-5.22,6.62-10.7,13.18-16.29,19.52A3.13,3.13,0,0,1,2382.66,2044.2Zm40.14-52.72a3.1,3.1,0,0,1-2.6-4.8c4.55-7,9-14.16,13.14-21.38a3.1,3.1,0,1,1,5.37,3.1c-4.22,7.32-8.7,14.61-13.31,21.68A3.11,3.11,0,0,1,2422.8,1991.48Zm32.13-58a3,3,0,0,1-1.3-.29,3.11,3.11,0,0,1-1.51-4.12c3.51-7.59,6.86-15.35,9.93-23.06a3.1,3.1,0,1,1,5.76,2.3c-3.11,7.82-6.5,15.68-10.06,23.37A3.11,3.11,0,0,1,2454.93,1933.52Zm23.49-62a3.06,3.06,0,0,1-.89-.14,3.1,3.1,0,0,1-2.09-3.86c2.39-8,4.58-16.14,6.52-24.24a3.11,3.11,0,0,1,6,1.45c-2,8.21-4.19,16.47-6.61,24.57A3.12,3.12,0,0,1,2478.42,1871.53Zm14.33-64.74-.46,0a3.12,3.12,0,0,1-2.62-3.52c1.21-8.24,2.21-16.64,3-24.94a3.05,3.05,0,0,1,3.37-2.81,3.11,3.11,0,0,1,2.81,3.37c-.76,8.42-1.77,16.92-3,25.28A3.1,3.1,0,0,1,2492.75,1806.79Zm4.82-66.13a3.11,3.11,0,0,1-3.11-3.11c0-8.37-.23-16.81-.69-25.08a3.09,3.09,0,0,1,2.92-3.27,3.15,3.15,0,0,1,3.27,2.92c.47,8.39.71,17,.71,25.43A3.1,3.1,0,0,1,2497.57,1740.66Zm-4.84-66.12a3.11,3.11,0,0,1-3.07-2.65c-1.22-8.26-2.67-16.58-4.34-24.73a3.1,3.1,0,0,1,6.08-1.24c1.69,8.26,3.17,16.69,4.4,25.06a3.1,3.1,0,0,1-2.62,3.52A2.28,2.28,0,0,1,2492.73,1674.54Zm-14.39-64.72a3.1,3.1,0,0,1-3-2.21c-2.41-8-5.06-16-7.88-23.84a3.1,3.1,0,0,1,5.84-2.11c2.85,7.92,5.54,16,8,24.16a3.1,3.1,0,0,1-3,4Zm-23.56-62a3.12,3.12,0,0,1-2.82-1.8c-3.5-7.56-7.27-15.12-11.18-22.47a3.1,3.1,0,0,1,5.48-2.92c4,7.45,7.78,15.11,11.33,22.78a3.09,3.09,0,0,1-1.51,4.12A3,3,0,0,1,2454.78,1547.85Zm-32.16-58a3.12,3.12,0,0,1-2.61-1.41c-4.53-7-9.35-13.88-14.3-20.62a3.1,3.1,0,1,1,5-3.68c5,6.83,9.91,13.86,14.51,20.91a3.1,3.1,0,0,1-.9,4.29A3,3,0,0,1,2422.62,1489.88Z"/><path class="cls-3" d="M1988.05,2195.8l-.35,0c-4.14-.48-8.27-1-12.39-1.59a3.1,3.1,0,1,1,.88-6.14c4,.57,8.13,1.09,12.21,1.56a3.11,3.11,0,0,1-.35,6.19Z"/><path class="cls-3" d="M1680.05,2024.31a3.1,3.1,0,0,1-2.44-1.18q-3.85-4.91-7.59-9.92a3.11,3.11,0,1,1,5-3.71q3.69,4.95,7.49,9.79a3.1,3.1,0,0,1-2.44,5Z"/><path class="cls-3" d="M1649.86,1981a3.1,3.1,0,0,1-2.65-1.47c-4.33-7-8.54-14.35-12.52-21.69a3.1,3.1,0,1,1,5.45-3c3.93,7.25,8.09,14.45,12.36,21.4a3.09,3.09,0,0,1-1,4.26A3,3,0,0,1,1649.86,1981Zm-30.12-57.87a3.11,3.11,0,0,1-2.85-1.87c-.73-1.67-1.44-3.35-2.15-5-2.5-6-4.93-12.08-7.2-18.2a3.1,3.1,0,0,1,5.81-2.17c2.25,6,4.64,12.08,7.11,18q1.05,2.49,2.12,5a3.1,3.1,0,0,1-1.61,4.08A3,3,0,0,1,1619.74,1923.13ZM1598,1861.59a3.08,3.08,0,0,1-3-2.28c-2.21-8-4.22-16.22-6-24.32a3.1,3.1,0,1,1,6.06-1.32c1.74,8,3.72,16.07,5.9,24a3.11,3.11,0,0,1-2.17,3.82A3.32,3.32,0,0,1,1598,1861.59Zm-12.74-64a3.09,3.09,0,0,1-3.07-2.71c-1-8.27-1.86-16.65-2.44-24.93a3.11,3.11,0,0,1,2.88-3.31,3.16,3.16,0,0,1,3.31,2.88c.57,8.16,1.38,16.43,2.4,24.59a3.1,3.1,0,0,1-2.69,3.46A2.55,2.55,0,0,1,1585.29,1797.59Zm-3.45-65.16h-.06a3.1,3.1,0,0,1-3-3.16c.16-8.31.55-16.74,1.16-25a3.1,3.1,0,1,1,6.19.46c-.61,8.18-1,16.48-1.14,24.68A3.11,3.11,0,0,1,1581.84,1732.43Zm5.91-65a2.94,2.94,0,0,1-.51,0,3.09,3.09,0,0,1-2.56-3.56c1.34-8.2,2.92-16.48,4.71-24.6a3.1,3.1,0,0,1,6.06,1.33c-1.76,8-3.32,16.18-4.65,24.27A3.09,3.09,0,0,1,1587.75,1667.44Zm15.07-63.48a3,3,0,0,1-.93-.15,3.1,3.1,0,0,1-2-3.89c2.48-7.92,5.22-15.88,8.14-23.67a3.1,3.1,0,1,1,5.81,2.17c-2.88,7.69-5.58,15.55-8,23.36A3.11,3.11,0,0,1,1602.82,1604Zm23.89-60.71a3,3,0,0,1-1.33-.3,3.1,3.1,0,0,1-1.46-4.14c3.6-7.53,7.44-15,11.4-22.28a3.11,3.11,0,0,1,5.45,3c-3.91,7.15-7.7,14.55-11.25,22A3.12,3.12,0,0,1,1626.71,1543.25Zm32.24-56.7a3.1,3.1,0,0,1-2.58-4.82c4.61-6.92,9.47-13.8,14.44-20.44a3.1,3.1,0,1,1,5,3.72c-4.9,6.55-9.7,13.34-14.25,20.15A3.09,3.09,0,0,1,1659,1486.55Zm40-51.54a3.1,3.1,0,0,1-2.31-5.18c5.52-6.17,11.31-12.28,17.2-18.16a3.1,3.1,0,0,1,4.38,4.38c-5.8,5.81-11.51,11.84-17,17.93A3.12,3.12,0,0,1,1698.9,1435Zm46.87-45.3a3.1,3.1,0,0,1-2-5.48c6.38-5.34,13-10.56,19.61-15.52a3.1,3.1,0,1,1,3.72,5c-6.55,4.89-13.06,10-19.35,15.3A3.08,3.08,0,0,1,1745.77,1389.71Zm52.88-38.14a3.1,3.1,0,0,1-1.63-5.74c7.07-4.36,14.35-8.59,21.65-12.57a3.1,3.1,0,0,1,3,5.45c-7.2,3.93-14.39,8.1-21.36,12.4A3.12,3.12,0,0,1,1798.65,1351.57Zm57.79-30.23a3.1,3.1,0,0,1-1.24-5.95c2-.86,4-1.72,6-2.56,5.7-2.4,11.49-4.7,17.22-6.84a3.1,3.1,0,1,1,2.17,5.81c-5.65,2.12-11.36,4.39-17,6.75q-3,1.25-5.91,2.53A3.07,3.07,0,0,1,1856.44,1321.34Zm61.49-21.84a3.1,3.1,0,0,1-.83-6.09c8-2.23,16.22-4.26,24.31-6a3.1,3.1,0,0,1,1.33,6.06c-8,1.75-16.06,3.75-24,6A3,3,0,0,1,1917.93,1299.5Zm64-12.89a3.1,3.1,0,0,1-.39-6.18c8.23-1,16.61-1.89,24.92-2.49a3.08,3.08,0,0,1,3.32,2.87,3.12,3.12,0,0,1-2.87,3.32c-8.2.59-16.47,1.42-24.59,2.46Zm90-2.5h-.23c-8.18-.59-16.48-.95-24.68-1.09a3.1,3.1,0,0,1,.06-6.2h0c8.31.13,16.72.51,25,1.1a3.1,3.1,0,0,1-.22,6.2Z"/><path class="cls-3" d="M2124.52,1291a2.84,2.84,0,0,1-.58,0c-4-.76-8.08-1.48-12.13-2.13a3.1,3.1,0,0,1,1-6.13q6.18,1,12.3,2.16a3.1,3.1,0,0,1-.57,6.15Z"/><path class="cls-26" d="M2147.89,1403.14a5.5,5.5,0,0,0-6.26,1.26L2096,1453.26a291.1,291.1,0,0,0-94.35-2.58l-42.94-51.21a5.47,5.47,0,0,0-6.17-1.6l-74.91,28.69a5.5,5.5,0,0,0-3.53,5.31l2.26,66.8a291.25,291.25,0,0,0-68.49,64.93l-66.62-5.85a5.52,5.52,0,0,0-5.5,3.24L1703,1634.24a5.5,5.5,0,0,0,1.27,6.25l48.85,45.67a291.33,291.33,0,0,0-2.58,94.34l-51.2,42.94a5.51,5.51,0,0,0-1.61,6.18l28.69,74.9a5.5,5.5,0,0,0,5.32,3.53l66.79-2.25a291.48,291.48,0,0,0,64.94,68.49l-5.85,66.61a5.48,5.48,0,0,0,3.23,5.5l73.25,32.68a5.5,5.5,0,0,0,6.26-1.26l45.66-48.85a291.38,291.38,0,0,0,94.35,2.57l42.94,51.21a5.47,5.47,0,0,0,6.17,1.6l74.91-28.69a5.5,5.5,0,0,0,3.53-5.31l-2.26-66.79a291.1,291.1,0,0,0,68.49-64.94l66.62,5.85a5.52,5.52,0,0,0,5.5-3.24L2379,1848a5.5,5.5,0,0,0-1.27-6.25l-48.85-45.67a291.33,291.33,0,0,0,2.58-94.34l51.21-42.94a5.51,5.51,0,0,0,1.59-6.18l-28.68-74.9a5.5,5.5,0,0,0-5.32-3.53l-66.79,2.25a291.48,291.48,0,0,0-64.94-68.49l5.85-66.61a5.49,5.49,0,0,0-3.23-5.5Z"/><path class="cls-27" d="M2041.18,1817a76.38,76.38,0,0,1-13.18-1.15,75.87,75.87,0,0,1-30.64-136.81h0a75.88,75.88,0,1,1,43.82,138Zm-.26-142.45a66.24,66.24,0,0,0-38.21,12.1h0a66.62,66.62,0,1,0,38.21-12.1Zm-40.89,8.3h0Z"/><path class="cls-27" d="M2040.68,1940.93c-79.78,0-155.14-48.5-185.33-127.32a197.15,197.15,0,0,1-13.11-70.69c0-79.76,48.51-155.11,127.32-185.3,2.74-1,5.49-2,8.26-2.95a199.56,199.56,0,0,1,28.71-7.27l3.81-.63,1.42,9.21a189.25,189.25,0,0,0-38.87,10.34h0c-97.27,37.25-146.09,146.69-108.84,244s146.7,146.1,244,108.84a188.94,188.94,0,0,0,49.16-325l5.74-7.33a198.23,198.23,0,0,1-122.23,354.1Z"/><path class="cls-3" d="M1709.21,2042.86a3.1,3.1,0,0,1-2.34-1.07c-2.68-3.07-5.46-6.11-8.27-9a3.1,3.1,0,1,1,4.47-4.31c2.88,3,5.74,6.12,8.48,9.27a3.11,3.11,0,0,1-2.34,5.14Z"/><path class="cls-3" d="M1533.1,2471.53a3.1,3.1,0,0,1-.23-6.2c8-.59,16-1.57,23.81-2.9a3.1,3.1,0,0,1,1,6.12c-8,1.36-16.22,2.36-24.38,3Zm62.33-12.49a3.1,3.1,0,0,1-1-6.05c7.29-2.42,14.6-5.22,21.72-8.32l.66-.29a3.1,3.1,0,1,1,2.5,5.68l-.68.3c-7.29,3.17-14.77,6-22.25,8.52A3.3,3.3,0,0,1,1595.43,2459Zm57.46-27.22a3.11,3.11,0,0,1-1.67-5.73c6.73-4.26,13.34-8.9,19.63-13.77a3.1,3.1,0,0,1,3.8,4.91c-6.45,5-13.21,9.74-20.11,14.1A3,3,0,0,1,1652.89,2431.82Zm49.08-40.39a3.11,3.11,0,0,1-2.25-5.24c5.48-5.79,10.74-11.89,15.64-18.15a3.1,3.1,0,0,1,4.89,3.82c-5,6.42-10.41,12.67-16,18.6A3.11,3.11,0,0,1,1702,2391.43Zm37.7-51.16a3.07,3.07,0,0,1-1.52-.39,3.11,3.11,0,0,1-1.18-4.23c3.9-6.94,7.52-14.15,10.76-21.42a3.1,3.1,0,1,1,5.67,2.52c-3.32,7.45-7,14.83-11,21.94A3.13,3.13,0,0,1,1739.67,2340.27Zm24.16-58.8a3,3,0,0,1-.83-.11,3.1,3.1,0,0,1-2.17-3.81c2.11-7.67,3.88-15.55,5.25-23.4a3.11,3.11,0,0,1,6.12,1.08c-1.42,8-3.23,16.1-5.38,24A3.1,3.1,0,0,1,1763.83,2281.47Zm9.17-62.9h-.07a3.12,3.12,0,0,1-3-3.17c0-1.82.06-3.65.06-5.47,0-6.16-.22-12.39-.67-18.52a3.1,3.1,0,0,1,6.19-.45c.46,6.28.69,12.65.69,19,0,1.87,0,3.74-.06,5.6A3.11,3.11,0,0,1,1773,2218.57Zm-6.5-63.25a3.09,3.09,0,0,1-3-2.41c-1.8-7.77-4-15.54-6.48-23.09a3.1,3.1,0,1,1,5.89-2c2.56,7.73,4.79,15.68,6.63,23.65a3.1,3.1,0,0,1-2.32,3.72A3.42,3.42,0,0,1,1766.5,2155.32Zm-21.74-59.75a3.08,3.08,0,0,1-2.76-1.7c-3.62-7.11-7.61-14.12-11.86-20.85a3.1,3.1,0,1,1,5.25-3.31c4.35,6.88,8.43,14.07,12.13,21.35a3.1,3.1,0,0,1-2.76,4.51Z"/><path class="cls-3" d="M1493.55,2471.4h-.25c-4.18-.33-8.38-.77-12.49-1.3a3.11,3.11,0,1,1,.8-6.16c4,.52,8.1,1,12.18,1.27a3.1,3.1,0,0,1-.24,6.2Z"/><path class="cls-3" d="M1312.67,2376.19a3.1,3.1,0,0,1-2.42-1.15c-2.65-3.28-5.22-6.63-7.65-9.95a3.1,3.1,0,0,1,5-3.66c2.38,3.24,4.89,6.5,7.48,9.71a3.09,3.09,0,0,1-2.41,5.05Z"/><path class="cls-3" d="M1284.61,2333.44a3.1,3.1,0,0,1-2.75-1.67c-2.92-5.58-5.66-11.31-8.16-17.05-.7-1.61-1.39-3.23-2-4.86a3.1,3.1,0,1,1,5.74-2.35q1,2.37,2,4.73c2.43,5.61,5.11,11.21,8,16.66a3.11,3.11,0,0,1-2.75,4.54Zm-22.18-58.5a3.09,3.09,0,0,1-3-2.36c-1.93-7.79-3.51-15.76-4.7-23.71a3.1,3.1,0,1,1,6.13-.92c1.17,7.75,2.71,15.54,4.59,23.14a3.1,3.1,0,0,1-2.27,3.76A3.2,3.2,0,0,1,1262.43,2274.94Zm-7.49-62.11h0a3.09,3.09,0,0,1-3.09-3.11c0-8,.4-16.16,1.16-24.14a3.07,3.07,0,0,1,3.38-2.8,3.11,3.11,0,0,1,2.8,3.39c-.74,7.79-1.12,15.72-1.14,23.57A3.09,3.09,0,0,1,1254.94,2212.83Zm7.69-62.08a3.2,3.2,0,0,1-.75-.09,3.11,3.11,0,0,1-2.27-3.76c1.94-7.78,4.27-15.56,6.92-23.15a3.1,3.1,0,0,1,5.86,2c-2.59,7.41-4.86,15-6.75,22.61A3.1,3.1,0,0,1,1262.63,2150.75Zm22.29-58.44a3,3,0,0,1-1.45-.36,3.1,3.1,0,0,1-1.29-4.19c3.75-7.13,7.87-14.13,12.23-20.83a3.1,3.1,0,1,1,5.2,3.39c-4.26,6.53-8.28,13.37-11.95,20.34A3.09,3.09,0,0,1,1284.92,2092.31Zm35.6-51.41a3.1,3.1,0,0,1-2.32-5.17c5.33-6,11-11.81,16.87-17.28a3.1,3.1,0,0,1,4.23,4.54c-5.72,5.33-11.25,11-16.46,16.87A3.1,3.1,0,0,1,1320.52,2040.9Zm46.93-41.33a3.1,3.1,0,0,1-1.76-5.66c6.6-4.52,13.52-8.8,20.55-12.71a3.1,3.1,0,1,1,3,5.42c-6.86,3.82-13.61,8-20.06,12.41A3.1,3.1,0,0,1,1367.45,1999.57Zm55.48-28.86a3.1,3.1,0,0,1-1.09-6c7.51-2.83,15.24-5.34,23-7.47a3.1,3.1,0,0,1,1.64,6c-7.55,2.08-15.1,4.54-22.44,7.3A3.18,3.18,0,0,1,1422.93,1970.71Zm60.77-14.82a3.11,3.11,0,0,1-.36-6.19c8-.94,16.07-1.52,24.11-1.71a3.16,3.16,0,0,1,3.18,3,3.1,3.1,0,0,1-3,3.18c-7.84.19-15.76.76-23.53,1.68Z"/><path class="cls-3" d="M1558.66,1958a3.51,3.51,0,0,1-.55,0c-3.95-.7-8-1.32-12.11-1.84a3.1,3.1,0,1,1,.78-6.15c4.19.53,8.36,1.16,12.41,1.88a3.1,3.1,0,0,1-.53,6.16Z"/><path class="cls-28" d="M1572.73,2020a3.11,3.11,0,0,0-3.53.76l-25.47,28a164.44,164.44,0,0,0-53.39-.76l-24.67-28.65a3.11,3.11,0,0,0-3.5-.86L1420,2035.23a3.11,3.11,0,0,0-2,3l1.77,37.77a164.54,164.54,0,0,0-38.26,37.24l-37.73-2.81a3.12,3.12,0,0,0-3.09,1.87L1322.8,2154a3.1,3.1,0,0,0,.76,3.53l28,25.47a164.71,164.71,0,0,0-.76,53.39l-28.65,24.67a3.12,3.12,0,0,0-.86,3.51l16.79,42.16a3.1,3.1,0,0,0,3,2l37.77-1.77a164.54,164.54,0,0,0,37.24,38.26l-2.81,37.73a3.1,3.1,0,0,0,1.87,3.09l41.68,17.94a3.1,3.1,0,0,0,3.53-.76l25.47-28a164.72,164.72,0,0,0,53.39.75l24.67,28.65a3.11,3.11,0,0,0,3.51.86l42.16-16.79a3.09,3.09,0,0,0,2-3l-1.77-37.77a164.54,164.54,0,0,0,38.26-37.24l37.73,2.81a3.1,3.1,0,0,0,3.09-1.87l17.94-41.68a3.11,3.11,0,0,0-.76-3.53l-28-25.47a164.72,164.72,0,0,0,.75-53.39l28.65-24.67a3.1,3.1,0,0,0,.86-3.51l-16.79-42.16a3.1,3.1,0,0,0-3-2l-37.77,1.77a164.54,164.54,0,0,0-37.24-38.26l2.81-37.73a3.12,3.12,0,0,0-1.87-3.09Z"/><path class="cls-27" d="M1514.84,2256.89a44.91,44.91,0,1,1,26.29-8.51A44.92,44.92,0,0,1,1514.84,2256.89Zm-.13-80.58a35.77,35.77,0,1,0,5.73.46A35.89,35.89,0,0,0,1514.71,2176.31Z"/><path class="cls-27" d="M1514.46,2327.09a114.19,114.19,0,0,1-42.21-220.28h0a115.24,115.24,0,0,1,21.9-6.29l1.5-.27,1.55,9.18a105.4,105.4,0,0,0-21.51,6h0a104.79,104.79,0,1,0,102.48,14.11l5.64-7.4a114.25,114.25,0,0,1-69.36,204.92Z"/><path class="cls-29" d="M3108.18,2257.24c16.61,17.73,41.08,33.05,58.29,42.61-25.71,31.77-60.49,63.59-106.54,94.74l-13.18,29.57-42.23-50.61S3080.29,2335.85,3108.18,2257.24Z"/><path class="cls-30" d="M2720.63,1977.18a349.74,349.74,0,0,0,35.52-54.21c13.93-26.33,65.5-48.38,69.31-78.11,94.23,16.38,189.4,21.62,257.87,35.89,19.67,4.1,38.16,12.34,51.29,27.54,52.08,60.27,166.37,225.28,31.85,391.56-17.21-9.56-41.68-24.88-58.29-42.61,14.88-42,16.1-95.57-15.09-161.31a152.88,152.88,0,0,1-4,15.45c-43,136.18-45.28,249.51-45.19,275.63a8.6,8.6,0,0,1-5.41,8.06c-56.57,22.67-165.48,9.18-202,3.73a12.3,12.3,0,0,1-10.29-14c18-130-74.14-343.83-98.46-397.39A35.67,35.67,0,0,0,2720.63,1977.18Z"/><path class="cls-31" d="M2985.54,1755.69l10.91,111.41s-63.81,22.07-109.39-10.09l33.18-104.45Z"/><path class="cls-32" d="M3099.88,2082.71c18.89-54.4,14.94-117.47,13.67-132.27a3.14,3.14,0,0,0-3.51-2.84h0a3.13,3.13,0,0,0-2.79,3.39c1.23,14.3,5.17,76.34-13.35,129.66a3.12,3.12,0,0,0,1.87,4h0A3.19,3.19,0,0,0,3099.88,2082.71Z"/><path class="cls-33" d="M2471,1982.44c107.55,53.89,194.94-56.76,252.25-101.93,75.68-59.64,134.57-30.63,134.57-30.63l-80.7,154c-143.44,173.59-252.92,98.41-322,51.58A150.16,150.16,0,0,1,2471,1982.44Z"/><path class="cls-34" d="M2384.87,1955.12h0c54.69,18.56,48.32,21.65,86.12,27.32a150.16,150.16,0,0,0-15.88,73c-49.59-23.44-80.68-51.58-80.68-51.58-14.78-7.06-9.66-30.25-4.55-45A9.22,9.22,0,0,1,2384.87,1955.12Z"/><path class="cls-35" d="M2896.4,1657s-47.39,89.21-41.32,125.24,64.81,33.45,116.1,4.18l35.84-96.32Z"/><path class="cls-36" d="M2968.91,1739.09a3.68,3.68,0,0,1-1.6-5.38c3.79-5.8,10.91-17.64,13.18-28,0,0,8.52-5.45-21.68-12.68s-75.25-18.45-84.71-44.16c-9.23-25.07,40.27-57.6,79-7.38,1.47,1.91-20.9-28.54-19.43-30.46,6.34-8.25,23-25.39,46.17-15,21.66,9.72,24.11,25.6,23.81,33.6a3.65,3.65,0,0,0,4.33,3.74c11-2.09,37.24-3.88,49.51,23.08,10.1,22.22,3.54,34.79-2.45,40.94a3.67,3.67,0,0,0,1.57,6.09c7.2,2.2,4.78-1.31,3.85,15.55-1.29,23.32-15.64,30.88-23.06,29.82a3.68,3.68,0,0,0-3.27,1.16c-6.36,7-35,36.94-66.07,40.55a3.71,3.71,0,0,1-3.89-4.9l13.43-39a3.69,3.69,0,0,0-2-4.58Z"/><path class="cls-37" d="M2963.51,1744.63s33.75-23.15,36.21-3.66-30.38,28.24-46.65,21Z"/><path class="cls-5" d="M2354.86,3060.72l.7,44c1.2,75.53,43.45,136.1,94.38,135.29l60.54-1c50.93-.8,91.24-62.69,90.05-138.22l-.7-44q-.07-4.38-.33-8.74l-77-1304-131.91,2.09L2354.91,3052Q2354.79,3056.35,2354.86,3060.72Zm61.25-4.43c-.9-56.87,25.76-103.4,59.55-103.94s61.91,45.13,62.81,102-25.76,103.4-59.55,103.93S2417,3113.15,2416.11,3056.29Z"/><path class="cls-5" d="M2317,1301.28l4.05,255.4a58.57,58.57,0,0,0,23.58,46.07l74.75,55.71a58.62,58.62,0,0,0,71.53-1.13l73-58a58.62,58.62,0,0,0,22.11-46.8l-4-255.4c-.61-38.52,44.62-60.46,73.91-35.42,70.07,59.88,115.38,150.11,117,251.73,2.91,183.67-138.31,312.28-315,315.08s-321.89-121.28-324.8-305c-1.61-101.61,40.81-193.23,108.95-255.31C2270.48,1242.27,2316.39,1262.76,2317,1301.28Z"/><path class="cls-7" d="M2341.07,1300.9l4,255.4a58.6,58.6,0,0,0,23.58,46.07l74.75,55.71A58.62,58.62,0,0,0,2515,1657l72.95-58a58.63,58.63,0,0,0,22.11-46.8L2606,1296.7c-.61-38.52,44.62-60.46,73.91-35.43,70.07,59.89,115.38,150.12,117,251.73,2.91,183.67-138.31,312.29-315,315.09s-321.89-121.28-324.8-304.95c-1.61-101.62,40.82-193.24,109-255.31C2294.55,1241.88,2340.46,1262.38,2341.07,1300.9Z"/><path class="cls-7" d="M2374.06,3060.42l.7,44c1.2,75.53,43.45,136.11,94.38,135.3l60.54-1c50.93-.81,91.24-62.69,90.05-138.22l-.7-44c-.05-2.91-.16-5.83-.33-8.73l-77-1304-131.91,2.09-35.66,1305.81Q2374,3056,2374.06,3060.42Zm61.25-4.44c-.9-56.86,25.76-103.39,59.55-103.93s61.91,45.13,62.81,102-25.76,103.39-59.55,103.93S2436.21,3112.85,2435.31,3056Z"/><path class="cls-38" d="M2365,1999.94l6,12.69a6.42,6.42,0,0,0,5.09,3.66,119.18,119.18,0,0,0,52.73-6.2,10,10,0,0,0,5.54-14.21,208.52,208.52,0,0,0-25-36,25,25,0,0,0-12.28-7.81l-13.25-3.65a12.17,12.17,0,0,0-14.08,6.11c-6.05,11.89-7.86,25.4-6.24,40.22A16.09,16.09,0,0,0,2365,1999.94Z"/><path class="cls-39" d="M2892.23,3217.12a10,10,0,0,1,.28-2.75c13.67-54.22,81.56-88,81.56-88l26.9,2.1c15.46,47.8,13.47,77.11,11,90.16-.07.37-.18.72-.28,1.07C2989.49,3221.69,2943.82,3223,2892.23,3217.12Z"/><path class="cls-5" d="M3011.68,3219.71a11.65,11.65,0,0,1-8.53,8.62c-31.57,6.64-81.74,1.3-102.8-1.46-4.65-.6-8-4.9-8.12-9.75C2943.82,3223,2989.49,3221.69,3011.68,3219.71Z"/><path class="cls-5" d="M2765.71,3219.16c29.7-.83,45.07-4.33,53-7.58,0,3,0,6-.09,9.08a5.86,5.86,0,0,1-5.6,6l-163.12-1c-5.2,0-8.25-6.07-6-10.84C2665.31,3216.49,2719.78,3220.44,2765.71,3219.16Z"/><path class="cls-40" d="M2643.92,3214.73a7.63,7.63,0,0,1,.65-1.23c14.4-20.13,51.09-60.22,123.59-77.6l34.78-1.1s15.49,26.92,15.78,76.78c-7.94,3.25-23.31,6.75-53,7.58C2719.78,3220.44,2665.31,3216.49,2643.92,3214.73Z"/><path class="cls-41" d="M2837.3,2363s-93.69,349.7-92.18,779.55c0,7.84,15,6.48,22.13,8.1,10.54,2.38,26.05,5.2,38.88,4.82,6.86-.21,12.58-5.65,13.74-12.89,11.76-73.91,79.26-490.27,117.72-557.86,0,0,14.76,368.34,6.67,560.73-.2,4.78,13.61,11.42,18,12a133.84,133.84,0,0,0,31.22-.1c5.21-.59,19.39,6.21,20.13.65,8.38-62.55,46.62-445.88,44.57-714.08-.11-15.13-37.33-80.89-37.33-80.89Z"/><path class="cls-42" d="M2940.67,2561.82a3.17,3.17,0,0,0,3.06-2.37c7-26.83,59.05-56.32,59.58-56.61a3.17,3.17,0,0,0-3.1-5.52c-2.24,1.26-55,31.11-62.6,60.54a3.17,3.17,0,0,0,2.27,3.86A3.06,3.06,0,0,0,2940.67,2561.82Z"/><path class="cls-43" d="M2833.69,2056.38H2964.5c7.81,0,26.6,5.38,28.37,13l48.45,127.52,10.35,83.35,6.56,163.67-237.8-9.26-16.12-237.76,22.15-134.37A7.32,7.32,0,0,1,2833.69,2056.38Z"/><path class="cls-44" d="M2830.75,2081.77l-4.46-237a3.25,3.25,0,0,1,3.77-3.27l30.47,4.9a7,7,0,0,1,5.91,7.24l-4.93,227.89a3.39,3.39,0,0,1-3.39,3.32h-24.25A3.12,3.12,0,0,1,2830.75,2081.77Z"/><path class="cls-45" d="M2962.15,2086.05a5.59,5.59,0,0,1-4.25-6.69l46.2-206a7.09,7.09,0,0,1,7.51-5.18l30.89,2.94a6.9,6.9,0,0,1,5.84,9.19l-63.05,206.24a4.94,4.94,0,0,1-5.8,3.38Z"/><circle class="cls-46" cx="2848.34" cy="2070.57" r="8.06" transform="translate(-629.85 2620.53) rotate(-45)"/><circle class="cls-47" cx="2971.97" cy="2072.22" r="8.06" transform="translate(-594.81 2708.44) rotate(-45)"/><path class="cls-48" d="M2847.52,2129.61V2264a6.4,6.4,0,0,0,6.2,6.4l114.17,3.51a6.41,6.41,0,0,0,6.6-6.4V2129.61a6.41,6.41,0,0,0-6.41-6.41H2853.92A6.4,6.4,0,0,0,2847.52,2129.61Z"/></g></g></svg>